<?xml version="1.0" standalone="no"?>
<!DOCTYPE svg PUBLIC "-//W3C//DTD SVG 20010904//EN"
 "http://www.w3.org/TR/2001/REC-SVG-20010904/DTD/svg10.dtd">
<svg version="1.0" xmlns="http://www.w3.org/2000/svg"
 width="500.000000pt" height="500.000000pt" viewBox="0 0 500.000000 500.000000"
 preserveAspectRatio="xMidYMid meet">
<metadata>
Created by potrace 1.14, written by Peter Selinger 2001-2017
</metadata>
<g transform="translate(0.000000,500.000000) scale(0.100000,-0.100000)"
fill="#000000" stroke="none">
<path d="M2506 4483 c-4 -4 -48 -8 -99 -9 -51 -2 -117 -6 -147 -10 -30 -4 -65
-7 -77 -8 -13 -1 -23 -3 -23 -6 0 -3 -8 -6 -17 -6 -25 -1 -71 -10 -118 -22
-22 -6 -51 -13 -65 -16 -27 -5 -113 -32 -145 -46 -11 -5 -48 -19 -82 -32 -35
-12 -63 -27 -63 -31 0 -5 -4 -6 -9 -2 -5 3 -17 -2 -25 -11 -9 -8 -16 -13 -16
-9 0 3 -10 -1 -23 -10 -13 -8 -27 -12 -30 -8 -4 3 -7 1 -7 -5 0 -6 -10 -14
-22 -18 -13 -4 -41 -18 -63 -33 -22 -14 -42 -26 -45 -26 -9 -1 -105 -69 -108
-77 -2 -4 -10 -8 -18 -8 -8 0 -17 -7 -20 -15 -4 -8 -10 -12 -15 -9 -5 3 -12
-2 -15 -10 -3 -9 -12 -16 -19 -16 -7 0 -15 -7 -19 -15 -3 -8 -12 -15 -21 -15
-8 0 -15 -8 -15 -17 0 -9 -3 -14 -6 -10 -3 3 -27 -17 -54 -44 -26 -27 -53 -49
-59 -49 -6 0 -11 -5 -11 -10 0 -6 -17 -28 -37 -49 -21 -20 -49 -52 -63 -70
-14 -18 -30 -38 -35 -44 -35 -40 -76 -97 -69 -97 4 0 -5 -11 -20 -25 -15 -14
-24 -25 -21 -25 4 0 -3 -13 -14 -29 -12 -16 -21 -34 -21 -41 0 -6 -5 -8 -10
-5 -6 4 -9 3 -8 -2 4 -11 -34 -87 -44 -91 -5 -2 -8 -12 -8 -23 0 -10 -4 -19
-10 -19 -5 0 -10 -9 -10 -20 0 -11 -4 -20 -10 -20 -5 0 -10 -9 -10 -20 0 -11
-5 -20 -12 -20 -6 0 -9 -2 -6 -6 3 -3 -10 -44 -29 -92 -18 -48 -36 -96 -38
-107 -2 -11 -4 -21 -6 -22 -1 -2 -3 -7 -4 -13 -1 -5 -4 -13 -5 -17 -1 -5 -2
-12 -1 -17 1 -4 -4 -14 -10 -22 -6 -8 -9 -14 -6 -14 3 0 0 -19 -5 -42 -20 -84
-37 -208 -43 -313 -2 -27 -4 -52 -5 -55 -9 -24 3 -301 15 -363 4 -22 3 -27 -7
-21 -9 6 -9 3 1 -9 7 -10 15 -32 16 -50 1 -17 5 -39 7 -47 5 -14 24 -92 32
-135 5 -24 35 -109 52 -150 7 -16 10 -33 8 -37 -3 -4 0 -8 5 -8 6 0 11 -7 11
-15 0 -8 9 -30 20 -50 11 -20 20 -41 20 -48 0 -7 8 -22 18 -33 10 -11 17 -25
14 -32 -2 -6 1 -12 6 -12 6 0 14 -9 17 -21 8 -26 67 -123 78 -127 4 -2 7 -10
7 -17 0 -7 4 -15 8 -17 4 -1 27 -31 51 -65 24 -35 48 -63 52 -63 5 0 9 -5 9
-11 0 -7 8 -19 18 -28 9 -9 34 -35 54 -59 21 -23 38 -39 38 -35 0 4 8 -4 17
-17 10 -14 17 -28 15 -32 -1 -5 2 -8 7 -8 5 0 12 -15 16 -33 7 -30 22 -70 47
-124 17 -36 85 -98 131 -121 67 -33 104 -41 195 -43 34 -1 62 -5 62 -9 0 -3 6
-7 13 -7 26 0 67 -35 67 -58 0 -27 19 -85 28 -85 4 0 18 -16 31 -35 21 -32
105 -83 145 -89 8 -1 19 -5 22 -9 4 -4 16 -7 26 -7 10 0 18 -4 18 -10 0 -5 7
-7 15 -4 8 4 15 2 15 -2 0 -5 35 -9 78 -9 42 0 80 -4 84 -10 5 -6 8 -6 8 1 0
11 48 10 77 -1 7 -2 14 -1 17 4 3 4 20 6 38 4 18 -2 42 -3 53 -2 43 3 502 1
533 -3 18 -2 35 -2 37 2 3 5 190 5 190 -1 0 -1 26 -3 58 -4 54 -2 60 0 102 37
25 22 43 43 40 47 -8 13 19 41 44 46 52 10 93 28 158 70 81 52 105 75 99 91
-3 7 2 15 9 18 8 3 12 12 9 21 -3 8 -1 15 5 15 6 0 10 3 10 8 -1 4 -1 9 1 12
1 3 4 16 6 30 5 25 28 48 74 72 14 7 33 21 43 32 9 10 17 16 17 12 0 -4 6 -1
14 6 8 7 35 31 61 53 60 50 227 215 218 215 -3 0 11 16 31 35 21 19 34 35 30
35 -4 0 5 12 20 26 14 15 26 30 26 34 0 4 11 20 24 35 14 16 23 31 21 34 -5
10 22 30 31 23 4 -4 4 -1 0 6 -4 7 2 25 13 41 12 16 21 34 21 40 0 6 5 11 10
11 6 0 10 7 10 15 0 8 4 15 10 15 5 0 7 7 4 15 -4 8 -1 15 7 15 7 0 9 3 6 6
-4 4 2 19 13 34 11 15 17 30 13 34 -3 3 -1 6 6 6 7 0 10 3 7 8 -2 4 8 33 23
63 15 31 26 64 25 73 -1 9 2 16 6 16 5 0 12 17 16 38 4 20 10 39 13 42 11 9
52 180 46 190 -3 6 -2 10 3 10 5 0 9 6 10 13 2 27 12 104 18 137 8 48 12 460
4 460 -3 0 -6 10 -7 23 -3 74 -7 107 -12 107 -3 0 -7 15 -7 33 -2 41 -13 103
-25 134 -5 13 -6 23 -3 23 4 0 1 7 -6 15 -6 8 -9 19 -6 24 4 5 1 13 -5 16 -5
4 -8 13 -5 20 3 8 2 15 -2 17 -7 3 -38 85 -47 119 -2 9 -8 25 -13 35 -6 11
-25 51 -43 89 -18 39 -37 73 -42 76 -5 3 -8 10 -8 15 1 5 -18 38 -41 74 -23
36 -40 65 -37 65 2 0 -8 14 -24 30 -15 17 -30 38 -33 48 -3 9 -9 17 -14 17 -5
0 -12 9 -15 20 -4 11 -10 18 -15 15 -10 -6 -5 28 6 47 4 6 8 21 10 32 1 12 12
45 23 74 10 28 18 52 16 52 -2 0 6 24 16 53 11 28 22 59 24 67 2 8 10 29 19
45 21 42 67 165 61 165 -2 0 7 16 20 36 52 76 -7 160 -100 144 -35 -6 -74 -59
-70 -95 1 -14 -2 -25 -6 -25 -5 0 -9 -9 -9 -20 0 -11 -5 -20 -11 -20 -5 0 -7
-5 -4 -10 4 -6 3 -16 -2 -23 -5 -7 -18 -34 -28 -62 -10 -27 -25 -60 -33 -72
-8 -13 -11 -23 -8 -23 4 0 1 -10 -6 -22 -7 -13 -11 -26 -10 -30 1 -5 -3 -8 -8
-8 -5 0 -9 -3 -8 -7 1 -5 -6 -23 -15 -41 -10 -18 -15 -38 -11 -44 4 -6 3 -8
-3 -5 -6 4 -14 0 -17 -9 -5 -13 -14 -8 -46 25 -22 23 -42 41 -45 41 -5 0 -51
38 -81 68 -7 6 -17 12 -23 12 -6 0 -11 4 -11 8 0 4 -18 19 -40 32 -22 14 -40
29 -40 33 0 5 -4 5 -10 2 -5 -3 -10 -2 -10 4 0 10 -15 19 -97 61 -24 12 -43
26 -43 31 0 5 -9 9 -20 9 -11 0 -20 5 -20 10 0 6 -9 10 -20 10 -11 0 -20 5
-20 12 0 6 -3 8 -7 5 -3 -4 -14 0 -23 8 -10 9 -27 18 -40 20 -12 2 -28 9 -34
15 -7 5 -16 7 -19 3 -4 -3 -7 -2 -7 4 0 6 -12 14 -27 18 -16 5 -32 9 -38 11
-22 6 -80 29 -85 34 -6 6 -27 11 -52 13 -10 1 -18 4 -18 8 0 3 -19 10 -42 14
-24 5 -50 10 -58 12 -8 1 -26 5 -40 7 -14 2 -25 5 -25 6 0 2 -9 4 -21 5 -11 1
-38 6 -60 10 -44 9 -92 14 -179 18 -33 1 -65 6 -71 10 -6 3 -14 3 -18 0z"/>
</g>
</svg>
